<svg width="301" height="95" viewBox="0 0 301 95" fill="none" xmlns="http://www.w3.org/2000/svg">
<path d="M15.4103 92.9758H0.6421C0.21404 92.9758 0 92.7618 0 92.3338L0.25684 1.9905C0.25684 1.6481 0.42807 1.4768 0.77052 1.4768H26.0692C34.1168 1.4768 40.4736 3.9382 45.1395 8.861C49.8482 13.7409 52.2026 20.3973 52.2026 28.8302C52.2026 34.9948 50.9826 40.3668 48.5426 44.9468C46.0598 49.4848 42.8493 52.9948 38.9111 55.4768C34.9729 57.9598 30.6923 59.2018 26.0692 59.2018H16.0524V92.3338C16.0524 92.7618 15.8384 92.9758 15.4103 92.9758ZM26.0692 17.0798L16.0524 17.2082V43.2778H26.0692C28.8516 43.2778 31.2702 41.9508 33.3249 39.2968C35.3796 36.5998 36.4069 33.1108 36.4069 28.8302C36.4069 25.4057 35.4866 22.6019 33.6459 20.4187C31.8052 18.1928 29.2797 17.0798 26.0692 17.0798ZM84.3075 94.2598C79.5559 94.2598 75.2111 93.0618 71.2729 90.6638C67.3775 88.2668 64.274 85.0568 61.9624 81.0328C59.6937 76.9658 58.5593 72.4498 58.5593 67.4848L58.6877 26.4545C58.6877 21.5745 59.8007 17.1654 62.0267 13.2272C64.2526 9.2462 67.3133 6.0571 71.2087 3.66C75.1469 1.22 79.5131 0 84.3075 0C89.1874 0 93.5323 1.1772 97.342 3.5316C101.195 5.8859 104.255 9.075 106.524 13.0988C108.836 17.0798 109.991 21.5317 109.991 26.4545V32.4898C109.991 32.8328 109.82 33.0038 109.478 33.0038H94.7094C94.367 33.0038 94.1958 32.8328 94.1958 32.4898V26.4545C94.1958 23.5436 93.254 21.0394 91.3705 18.9419C89.487 16.8444 87.1327 15.7956 84.3075 15.7956C81.1826 15.7956 78.7854 16.8658 77.116 19.0061C75.4465 21.1464 74.6118 23.6292 74.6118 26.4545V67.4848C74.6118 70.6948 75.5535 73.3278 77.437 75.3828C79.3205 77.3938 81.6106 78.3998 84.3075 78.3998C87.1327 78.3998 89.487 77.2868 91.3705 75.0608C93.254 72.7928 94.1958 70.2668 94.1958 67.4848V61.3848C94.1958 61.0418 94.367 60.8708 94.7094 60.8708H109.606C109.949 60.8708 110.12 61.0418 110.12 61.3848V67.4848C110.12 72.4068 108.964 76.9018 106.652 80.9688C104.298 84.9928 101.195 88.2238 97.342 90.6638C93.4895 93.0618 89.1446 94.2598 84.3075 94.2598Z" fill="white"/>
<path d="M134.773 90.8139C131.729 90.8139 128.922 90.0319 126.352 88.4679C123.81 86.9029 121.771 84.8219 120.235 82.2249C118.726 79.5989 117.972 76.7219 117.972 73.5939V69.6549C117.972 69.3479 118.112 69.1939 118.391 69.1939H128.028C128.251 69.1939 128.363 69.3479 128.363 69.6549V73.5939C128.363 75.4649 128.991 77.0849 130.248 78.4539C131.505 79.7949 133.014 80.4649 134.773 80.4649C136.561 80.4649 138.083 79.7809 139.34 78.4119C140.597 77.0149 141.226 75.4089 141.226 73.5939C141.226 71.4989 139.857 69.6689 137.12 68.1049C136.673 67.8259 136.086 67.4899 135.36 67.0989C134.662 66.6799 133.824 66.2059 132.846 65.6749C131.868 65.1439 130.919 64.6269 129.997 64.1249C129.075 63.5939 128.181 63.0909 127.316 62.6159C124.187 60.7729 121.855 58.4679 120.318 55.7029C118.81 52.9099 118.056 49.7809 118.056 46.3179C118.056 43.1329 118.838 40.2559 120.402 37.6869C121.966 35.1449 124.006 33.1339 126.519 31.6532C129.061 30.1448 131.813 29.3906 134.773 29.3906C137.818 29.3906 140.611 30.1448 143.153 31.6532C145.695 33.1899 147.72 35.2289 149.228 37.7699C150.765 40.3119 151.533 43.1609 151.533 46.3179V53.3569C151.533 53.5799 151.421 53.6919 151.198 53.6919H141.561C141.338 53.6919 141.226 53.5799 141.226 53.3569L141.142 46.3179C141.142 44.3069 140.514 42.6729 139.257 41.4159C138 40.1589 136.505 39.5299 134.773 39.5299C133.014 39.5299 131.505 40.2009 130.248 41.5409C128.991 42.8819 128.363 44.4739 128.363 46.3179C128.363 48.1889 128.754 49.7529 129.536 51.0099C130.346 52.2669 131.813 53.4679 133.935 54.6139C134.159 54.7249 134.676 55.0049 135.486 55.4519C136.296 55.8989 137.19 56.4009 138.167 56.9599C139.173 57.4909 140.081 57.9799 140.891 58.4259C141.701 58.8449 142.19 59.0969 142.357 59.1809C145.206 60.7729 147.455 62.7279 149.103 65.0459C150.779 67.3649 151.617 70.2139 151.617 73.5939C151.617 76.8619 150.862 79.7949 149.354 82.3919C147.818 84.9899 145.779 87.0429 143.237 88.5509C140.695 90.0599 137.874 90.8139 134.773 90.8139ZM175.876 89.9759H166.197C165.946 89.9759 165.82 89.8359 165.82 89.5569V40.6199H154.675C154.396 40.6199 154.256 40.4799 154.256 40.2009L154.34 30.6057C154.34 30.3822 154.452 30.2705 154.675 30.2705H187.272C187.58 30.2705 187.733 30.3822 187.733 30.6057V40.2009C187.733 40.4799 187.621 40.6199 187.398 40.6199H176.127L176.211 89.5569C176.211 89.8359 176.099 89.9759 175.876 89.9759ZM207.803 90.8139C204.758 90.8139 201.951 90.0319 199.381 88.4679C196.839 86.9029 194.786 84.8219 193.222 82.2249C191.686 79.5989 190.917 76.7219 190.917 73.5939L191.001 46.4019C191.001 43.2169 191.769 40.3539 193.306 37.8119C194.814 35.2429 196.853 33.1899 199.423 31.6532C201.993 30.089 204.786 29.3069 207.803 29.3069C210.931 29.3069 213.738 30.075 216.224 31.6113C218.738 33.1479 220.749 35.2149 222.258 37.8119C223.794 40.3819 224.562 43.2449 224.562 46.4019L224.646 73.5939C224.646 76.7219 223.892 79.5849 222.383 82.1829C220.847 84.8089 218.808 86.9029 216.266 88.4679C213.724 90.0319 210.903 90.8139 207.803 90.8139ZM207.803 80.4649C209.534 80.4649 211.043 79.7669 212.328 78.3699C213.612 76.9459 214.255 75.3529 214.255 73.5939L214.171 46.4019C214.171 44.5019 213.571 42.8959 212.37 41.5829C211.168 40.2699 209.646 39.6139 207.803 39.6139C206.043 39.6139 204.534 40.2559 203.278 41.5409C202.021 42.8259 201.392 44.4459 201.392 46.4019V73.5939C201.392 75.4649 202.021 77.0849 203.278 78.4539C204.534 79.7949 206.043 80.4649 207.803 80.4649ZM241.196 89.9759H231.475C231.252 89.9759 231.14 89.8359 231.14 89.5569L231.308 30.6057C231.308 30.3822 231.419 30.2705 231.643 30.2705H248.989C252.089 30.2705 254.938 31.0247 257.536 32.5329C260.134 34.0409 262.201 36.0669 263.737 38.6079C265.301 41.1499 266.083 44.0269 266.083 47.2399C266.083 49.3339 265.762 51.2339 265.12 52.9379C264.477 54.6419 263.723 56.0799 262.857 57.2529C262.019 58.4259 261.251 59.2919 260.553 59.8509C263.653 63.2869 265.204 67.3229 265.204 71.9599L265.287 89.5569C265.287 89.8359 265.148 89.9759 264.868 89.9759H255.148C254.924 89.9759 254.813 89.8919 254.813 89.7249V71.9599C254.813 69.8929 254.086 68.1049 252.634 66.5969C251.182 65.0879 249.394 64.3339 247.271 64.3339H241.615L241.531 89.5569C241.531 89.8359 241.419 89.9759 241.196 89.9759ZM248.989 40.5359H241.615V54.0269H248.989C250.749 54.0269 252.313 53.3709 253.681 52.0579C255.078 50.7449 255.776 49.1389 255.776 47.2399C255.776 45.4239 255.106 43.8599 253.765 42.5469C252.424 41.2059 250.832 40.5359 248.989 40.5359ZM300.608 89.9759H272.871C272.648 89.9759 272.536 89.8359 272.536 89.5569L272.62 30.6057C272.62 30.3822 272.731 30.2705 272.955 30.2705H300.524C300.747 30.2705 300.859 30.4102 300.859 30.6895V40.2839C300.859 40.5079 300.747 40.6199 300.524 40.6199H282.927V54.0269H300.524C300.747 54.0269 300.859 54.1389 300.859 54.3619L300.943 64.0829C300.943 64.3059 300.831 64.4179 300.608 64.4179H282.927V79.4179H300.608C300.831 79.4179 300.943 79.5569 300.943 79.8369V89.6409C300.943 89.8639 300.831 89.9759 300.608 89.9759Z" fill="#F40090"/>
</svg>
